# xmcd
#
# Track frame offsets: 
#        150
#        20927
#        39950
#        71980
#
# Disc length: 2300 seconds
#
# Revision: 0
# Processed by: cddbd v1.5.1PL0 Copyright (c) Steve Scherf et al.
# Submitted via: ExactAudioCopy v0.95b3
#
DISCID=3508fa04
DTITLE=Jay-Z - Girls. Girls, Girls [CD Single)
DYEAR=2001
DGENRE=Hip-Hop
TTITLE0=Girls, Girls, Girls (Radio Edit)
TTITLE1=Guilty Until Proven Innocent (Feat. R. Kelly)
TTITLE2=Girls, Girls, Girls (Album Version)
TTITLE3=Video Tracks
EXTD=
EXTT0=
EXTT1=
EXTT2=
EXTT3=
PLAYORDER=
